<?xml version="1.0" standalone="no"?>
<!DOCTYPE svg PUBLIC "-//W3C//DTD SVG 20010904//EN"
 "http://www.w3.org/TR/2001/REC-SVG-20010904/DTD/svg10.dtd">
<svg version="1.0" xmlns="http://www.w3.org/2000/svg"
 width="450.000000pt" height="450.000000pt" viewBox="0 0 450.000000 450.000000"
 preserveAspectRatio="xMidYMid meet">

<g transform="translate(0.000000,450.000000) scale(0.100000,-0.100000)"
fill="#000000" stroke="none">
<path d="M2168 3948 c-18 -18 -34 -23 -73 -23 -42 0 -63 -8 -130 -48 -44 -27
-120 -62 -170 -79 -49 -16 -137 -52 -196 -80 l-105 -49 -53 35 c-60 40 -107
56 -170 56 -48 0 -126 -32 -135 -56 -3 -9 23 -44 74 -97 44 -45 79 -85 77 -88
-1 -4 -25 -31 -53 -62 -58 -63 -51 -63 -148 15 -33 26 -67 48 -76 48 -9 0 -27
-11 -39 -24 -27 -29 -32 -100 -11 -158 12 -32 11 -37 -21 -86 -19 -28 -40 -54
-47 -57 -7 -2 -26 5 -42 17 -25 18 -37 20 -85 14 -76 -9 -96 3 -246 150 -70
68 -131 124 -136 124 -11 0 -56 -47 -71 -75 -14 -27 4 -58 70 -120 29 -28 79
-78 111 -112 49 -53 57 -66 51 -88 -6 -26 16 -115 42 -167 8 -15 36 -39 64
-54 52 -28 58 -42 41 -87 -7 -17 -20 -26 -45 -31 -63 -12 -136 -92 -136 -148
0 -21 1 -21 19 7 24 40 49 61 94 80 34 14 203 16 1615 16 1381 0 1583 -2 1628
-15 55 -17 90 -48 104 -92 8 -29 8 -29 9 -3 2 61 -95 159 -159 159 -15 0 -26
11 -36 35 -21 50 -18 60 22 74 54 20 74 44 74 93 0 29 -7 49 -22 66 l-23 24
59 55 c33 31 107 96 165 145 98 83 108 95 128 151 12 34 19 65 16 70 -3 5 -35
6 -72 2 -64 -6 -68 -8 -131 -69 -60 -57 -204 -185 -241 -213 -13 -10 -23 -9
-55 8 -26 13 -54 19 -82 17 -41 -3 -46 0 -73 37 -29 40 -29 41 -14 84 23 66
19 114 -11 150 -14 17 -29 31 -33 31 -4 0 -41 -29 -83 -65 l-75 -64 -67 51
c-36 28 -66 55 -66 60 0 5 36 44 80 86 44 43 80 84 80 93 0 8 -11 26 -25 39
-51 48 -196 35 -287 -26 l-52 -35 -105 49 c-59 28 -151 64 -206 82 -55 17
-140 54 -188 83 -81 46 -92 50 -119 39 -30 -11 -58 -7 -58 8 0 43 -114 56
-152 18z m73 -48 c25 7 29 6 29 -10 0 -20 11 -25 82 -35 40 -5 47 -3 50 12 3
15 8 13 33 -13 17 -17 41 -37 54 -44 l23 -12 -20 -20 -20 -21 -27 21 c-83 66
-260 84 -357 37 -28 -14 -55 -25 -59 -25 -16 0 -18 35 -4 57 13 20 19 22 31
12 23 -19 135 8 142 35 3 11 7 15 9 9 3 -8 14 -9 34 -3z m-251 -144 c0 -2 -8
-10 -17 -17 -16 -13 -17 -12 -4 4 13 16 21 21 21 13z m683 -27 c20 -5 37 -14
37 -20 0 -6 -27 -42 -60 -80 -33 -39 -58 -74 -55 -79 3 -5 18 -11 34 -15 16
-3 41 -17 55 -30 21 -20 26 -33 26 -75 0 -45 -3 -52 -26 -60 -14 -6 -58 -10
-99 -10 l-73 0 -7 38 c-16 88 -106 123 -166 63 -21 -22 -29 -39 -29 -65 l0
-36 -160 0 c-154 0 -160 1 -160 20 0 39 -28 89 -60 105 -41 21 -94 5 -119 -36
-15 -25 -20 -27 -30 -15 -9 11 -10 37 -4 96 8 82 8 82 43 95 19 7 62 23 95 35
82 31 307 35 403 6 34 -10 65 -23 69 -28 3 -6 -4 -7 -18 -3 -33 11 -139 22
-139 16 0 -3 27 -23 61 -44 l60 -39 22 29 c12 15 44 52 72 81 68 72 111 81
228 51z m-886 -42 c-15 -12 -73 -45 -128 -73 -98 -50 -101 -51 -109 -30 -7 18
-1 24 39 45 67 36 183 80 206 80 18 0 17 -3 -8 -22z m-474 -1 c75 -18 132 -56
158 -108 31 -60 24 -185 -13 -250 -44 -74 -147 -128 -245 -128 -67 0 -128 42
-164 112 -19 38 -37 128 -25 128 3 0 43 -29 88 -65 45 -36 88 -65 94 -65 6 0
43 29 81 65 67 61 71 67 76 117 l5 53 -75 69 c-54 50 -71 71 -61 77 16 11 13
11 81 -5z m1961 5 c3 -5 -28 -41 -70 -80 l-77 -72 7 -46 c7 -53 28 -80 117
-149 54 -41 57 -42 75 -26 66 60 142 122 149 122 14 0 -5 -80 -30 -131 -16
-31 -41 -59 -67 -76 -87 -58 -253 -22 -319 70 -82 114 -72 279 21 341 38 25
91 43 145 49 17 2 33 5 37 6 4 0 9 -3 12 -8z m-397 -50 c70 -34 81 -43 76 -60
-3 -12 -7 -21 -8 -21 -2 0 -46 21 -98 46 -67 32 -94 50 -90 60 8 22 33 17 120
-25z m-1192 -97 c18 -18 16 -33 -7 -47 -35 -22 -66 21 -36 51 16 16 23 15 43
-4z m1163 4 c16 -16 15 -33 -3 -52 -22 -21 -45 -9 -45 23 0 41 22 55 48 29z
m-908 -108 c40 -40 14 -110 -42 -110 -41 0 -68 25 -68 63 0 61 67 90 110 47z
m506 12 c22 -14 35 -53 29 -83 -12 -52 -70 -65 -110 -24 -31 30 -32 62 -3 92
21 22 62 30 84 15z m-1829 -249 c15 -23 10 -43 -11 -43 -6 0 -65 54 -130 120
-101 101 -117 122 -106 135 11 13 28 1 122 -87 61 -57 117 -113 125 -125z
m3513 202 c0 -15 -7 -28 -17 -32 -18 -7 -129 -94 -148 -116 -5 -7 -50 -48 -98
-91 -80 -72 -89 -78 -104 -64 -16 17 -11 24 102 119 22 18 81 70 130 115 112
101 135 112 135 69z m-2576 -52 c21 -45 54 -82 164 -187 75 -72 196 -188 267
-258 l130 -128 -52 0 -53 0 -201 198 c-110 108 -207 201 -215 205 -42 24 2
-30 140 -171 85 -86 152 -160 149 -165 -6 -11 -224 196 -289 276 -30 37 -59
67 -64 67 -18 0 -40 -12 -40 -22 0 -6 84 -96 187 -199 172 -174 184 -189 157
-189 -16 0 -39 -3 -50 -6 -18 -5 -53 25 -193 164 -130 129 -185 176 -227 196
-30 14 -62 26 -72 27 -9 0 4 7 29 14 62 17 123 52 147 85 21 27 52 109 52 135
0 26 8 16 34 -42z m190 24 c11 -32 3 -52 -32 -75 -19 -13 -23 -11 -47 12 -30
30 -32 49 -4 77 29 29 71 22 83 -14z m1096 13 c19 -35 8 -73 -23 -84 -19 -7
-34 -7 -45 0 -21 13 -28 70 -11 90 18 21 66 18 79 -6z m149 -58 c18 -65 82
-126 156 -148 l60 -17 -38 -13 c-58 -20 -89 -46 -270 -222 -140 -137 -171
-163 -190 -158 -12 3 -35 6 -52 6 -28 0 -15 14 158 184 204 199 214 215 142
227 -49 8 -45 11 -279 -219 -152 -150 -166 -167 -145 -173 18 -4 12 -7 -25
-12 -27 -4 -66 -7 -88 -7 l-39 0 188 182 c312 302 347 339 373 396 27 57 27
57 49 -26z m-969 -67 c10 -12 10 -15 -2 -15 -8 0 -15 7 -15 15 0 8 1 15 2 15
2 0 8 -7 15 -15z m655 6 c3 -5 1 -12 -4 -15 -13 -8 -42 4 -35 15 7 12 31 12
39 0z m-229 -48 c-32 -28 -78 -41 -84 -25 -5 17 -22 15 -22 -3 0 -8 -15 -18
-32 -23 -18 -5 -32 -14 -30 -21 1 -7 -13 -11 -38 -11 -28 0 -40 4 -40 14 0 10
-16 17 -46 22 -27 4 -41 10 -34 14 9 6 7 11 -6 20 -18 11 -18 11 1 5 77 -25
192 -26 222 -3 7 5 17 7 23 3 5 -3 10 -2 10 3 0 14 63 39 84 34 18 -5 17 -7
-8 -29z m-1407 -17 c10 -11 6 -22 -20 -50 -28 -32 -69 -49 -69 -28 0 12 61 92
70 92 4 0 13 -6 19 -14z m819 -23 c-10 -13 -13 -12 -19 4 -9 25 0 36 17 22 11
-9 12 -15 2 -26z m786 21 c8 -21 -1 -34 -24 -34 -10 0 -21 4 -24 9 -10 16 5
41 24 41 10 0 21 -7 24 -16z m860 -25 c25 -29 35 -69 18 -69 -4 0 -26 18 -47
40 -33 34 -37 42 -25 50 22 14 26 13 54 -21z m-1417 15 c-3 -3 -12 -4 -19 -1
-8 3 -5 6 6 6 11 1 17 -2 13 -5z m-126 -20 c10 -13 10 -20 -4 -42 -21 -35 -41
-34 -45 1 -6 54 20 76 49 41z m-1164 -10 c2 -6 -28 -37 -67 -69 -66 -54 -73
-57 -103 -48 -50 14 -41 39 32 90 51 35 72 43 100 41 19 -2 36 -8 38 -14z
m1761 -9 c18 -39 15 -65 -7 -65 -22 0 -38 17 -42 45 -8 46 31 61 49 20z m368
-3 c-8 -24 -329 -342 -346 -342 -8 0 -11 2 -9 5 27 32 355 362 357 360 2 -2 1
-12 -2 -23z m752 -14 c15 -18 53 -61 85 -95 37 -39 57 -68 55 -80 -4 -20 -35
-30 -50 -15 -6 6 0 8 16 5 15 -3 26 -1 26 6 0 6 -6 11 -13 11 -7 0 -44 28 -82
62 -68 61 -67 52 4 -24 19 -21 32 -38 28 -38 -10 0 -115 108 -135 139 -15 22
-15 25 7 42 13 11 25 19 28 19 2 0 16 -15 31 -32z m-2523 -57 c39 -30 91 -74
118 -98 35 -33 53 -43 67 -38 19 6 20 1 20 -79 0 -51 -4 -86 -10 -86 -5 0 -10
21 -10 48 0 65 -8 88 -34 100 -28 13 -246 202 -246 214 0 12 12 4 95 -61z
m2284 62 c-2 -15 -99 -96 -107 -89 -4 5 15 28 41 52 46 41 68 54 66 37z
m-2472 -112 c110 -87 192 -171 217 -220 10 -18 16 -34 14 -36 -9 -8 -68 9 -68
21 0 17 -139 174 -154 174 -6 0 -36 22 -66 49 -30 27 -73 55 -94 61 l-39 12
28 18 c35 23 35 23 162 -79z m1076 83 c3 -4 2 -15 -4 -25 -11 -21 -49 -26 -49
-6 0 26 37 47 53 31z m407 -18 c0 -14 5 -28 10 -31 17 -11 11 -35 -9 -35 -14
0 -21 10 -25 35 -4 20 -4 40 -1 45 11 18 25 10 25 -14z m-1122 -63 c76 -57 88
-76 30 -49 -43 21 -148 103 -148 116 0 15 33 -4 118 -67z m957 53 c45 -19 85
-62 85 -92 0 -12 5 -24 12 -26 13 -5 -32 -107 -54 -125 -30 -23 -81 -33 -119
-23 -41 11 -89 60 -89 90 0 11 -7 23 -15 27 -13 8 -12 16 9 59 26 53 43 72 85
91 35 16 46 15 86 -1z m932 -44 c-20 -21 -37 -45 -37 -53 0 -8 -7 -24 -15 -35
-10 -13 -14 -44 -15 -96 0 -65 -3 -78 -16 -78 -14 0 -16 12 -13 79 4 67 1 81
-13 90 -25 16 -24 67 2 81 14 8 26 8 41 -1 19 -10 26 -6 57 25 20 19 38 33 41
30 3 -2 -12 -21 -32 -42z m-1177 8 c0 -5 -7 -10 -16 -10 -8 0 -12 5 -9 10 3 6
10 10 16 10 5 0 9 -4 9 -10z m1268 -8 c-24 -33 -108 -105 -108 -92 0 16 93
110 109 110 9 0 9 -5 -1 -18z m-2413 -84 c50 -46 110 -100 134 -120 45 -38 47
-58 6 -58 -16 0 -59 33 -136 105 -118 109 -134 129 -124 145 12 20 32 8 120
-72z m2753 36 c24 -26 40 -49 34 -53 -5 -3 -16 -22 -25 -41 -8 -19 -34 -53
-58 -75 l-43 -40 47 52 c33 36 47 61 47 80 0 67 -66 100 -135 67 -47 -22 -157
-132 -174 -172 -9 -22 -21 -31 -42 -34 -26 -4 -29 -2 -23 16 10 33 83 124 132
164 55 45 129 81 166 82 22 0 41 -12 74 -46z m-2444 -52 c70 -71 94 -102 78
-102 -5 0 -44 38 -87 85 -42 47 -73 85 -68 85 5 0 39 -31 77 -68z m-544 21 c0
-13 -3 -13 -15 -3 -8 7 -15 19 -15 27 0 13 3 13 15 3 8 -7 15 -19 15 -27z m88
-7 c12 -18 59 -64 102 -101 76 -65 86 -75 75 -75 -3 0 -121 103 -229 201 -6 6
-2 9 10 9 10 0 29 -15 42 -34z m702 -81 c0 -57 -4 -95 -10 -95 -6 0 -10 38
-10 95 0 57 4 95 10 95 6 0 10 -38 10 -95z m1604 51 c8 -51 -2 -146 -15 -146
-5 0 -9 43 -9 95 0 99 13 127 24 51z m544 3 c5 -26 -144 -149 -180 -149 -25 0
-27 2 -19 19 6 10 43 49 83 85 73 66 109 80 116 45z m-2030 -71 c32 -32 -2
-87 -40 -67 -18 10 -25 58 -11 72 10 11 38 8 51 -5z m1402 -7 c15 -30 12 -49
-11 -61 -38 -21 -78 37 -47 68 18 18 46 14 58 -7z"/>
<path d="M2504 3681 c-45 -33 -120 -109 -113 -115 10 -9 190 -13 181 -4 -7 7
9 28 44 63 30 29 54 57 54 62 0 6 -14 13 -31 17 -62 12 -95 6 -135 -23z"/>
<path d="M1973 3641 c-42 -11 -88 -41 -77 -51 5 -4 44 -11 87 -14 l78 -7 -3
38 c-3 32 -7 38 -28 40 -14 1 -40 -2 -57 -6z"/>
<path d="M2090 3612 c0 -27 5 -42 16 -46 24 -9 174 -7 174 2 0 26 -82 70 -145
79 l-45 6 0 -41z"/>
<path d="M1953 3510 c15 -12 39 -44 52 -70 l25 -48 127 1 127 2 9 35 c5 19 15
42 24 52 8 9 11 18 6 21 -4 2 -66 7 -138 11 -71 3 -159 9 -195 12 l-65 6 28
-22z"/>
<path d="M2500 3502 c0 -6 10 -18 22 -26 30 -21 158 -23 158 -2 0 9 -19 15
-57 20 -32 3 -73 9 -90 12 -20 4 -33 2 -33 -4z"/>
<path d="M2591 3411 c-42 -11 -37 -31 8 -31 46 0 91 15 91 30 0 11 -61 12 -99
1z"/>
<path d="M1665 3510 c-3 -5 -1 -10 4 -10 6 0 11 5 11 10 0 6 -2 10 -4 10 -3 0
-8 -4 -11 -10z"/>
<path d="M1862 3428 c-17 -17 -15 -42 6 -61 24 -22 35 -21 55 1 21 23 21 36 1
56 -18 19 -45 21 -62 4z m38 -28 c0 -11 -4 -20 -10 -20 -5 0 -10 9 -10 20 0
11 5 20 10 20 6 0 10 -9 10 -20z"/>
<path d="M2368 3415 c-9 -21 -8 -28 7 -45 25 -28 63 -26 76 4 13 27 -3 66 -26
66 -18 0 -19 -12 -3 -28 9 -9 9 -15 1 -23 -17 -17 -34 -1 -27 27 8 32 -13 32
-28 -1z"/>
<path d="M1677 3373 c-13 -12 -7 -41 9 -47 21 -8 55 21 47 40 -5 14 -44 19
-56 7z"/>
<path d="M2777 3373 c-24 -23 12 -55 38 -33 12 10 13 16 4 26 -12 15 -31 18
-42 7z"/>
<path d="M1135 2810 c3 -5 8 -10 11 -10 2 0 4 5 4 10 0 6 -5 10 -11 10 -5 0
-7 -4 -4 -10z"/>
<path d="M2195 3005 c-14 -13 -25 -34 -25 -45 0 -25 51 -80 74 -80 29 0 69 45
69 78 0 67 -70 95 -118 47z"/>
<path d="M3123 3013 c-22 -8 -15 -43 7 -43 13 0 20 7 20 19 0 22 -9 30 -27 24z"/>
<path d="M1824 3909 c-9 -16 21 -43 40 -36 9 4 16 16 16 27 0 15 -7 20 -24 20
-14 0 -28 -5 -32 -11z"/>
<path d="M2632 3907 c-18 -21 0 -35 52 -38 63 -5 70 13 14 35 -52 19 -53 19
-66 3z"/>
<path d="M1757 3883 c-12 -11 -8 -23 8 -23 8 0 15 7 15 15 0 16 -12 20 -23 8z"/>
<path d="M2885 3880 c3 -5 28 -10 56 -10 27 0 49 5 49 10 0 6 -25 10 -56 10
-34 0 -53 -4 -49 -10z"/>
<path d="M1523 3873 c9 -2 23 -2 30 0 6 3 -1 5 -18 5 -16 0 -22 -2 -12 -5z"/>
<path d="M1674 3866 c-18 -14 -18 -16 -1 -33 21 -21 50 -8 55 26 4 25 -24 29
-54 7z"/>
<path d="M2782 3871 c-20 -12 -10 -46 14 -49 25 -4 40 24 23 44 -13 16 -19 17
-37 5z"/>
<path d="M1587 3838 c-24 -18 -12 -50 16 -46 26 4 31 19 15 41 -11 15 -16 16
-31 5z"/>
<path d="M2882 3818 c-18 -18 -14 -36 10 -44 15 -4 26 -1 35 12 12 16 11 21
-4 31 -21 16 -26 16 -41 1z"/>
<path d="M1475 3780 c-17 -19 -17 -20 9 -31 22 -11 29 -10 43 3 19 20 11 48
-15 48 -10 0 -27 -9 -37 -20z"/>
<path d="M2957 3786 c-3 -7 1 -23 10 -35 12 -17 18 -20 29 -10 20 16 17 36 -5
49 -25 13 -28 13 -34 -4z"/>
<path d="M1164 3551 c-42 -26 -50 -40 -31 -59 14 -14 18 -14 40 1 46 30 59 48
46 63 -15 18 -18 18 -55 -5z"/>
<path d="M3264 3558 c-9 -15 62 -78 88 -78 29 0 22 35 -13 64 -33 28 -63 33
-75 14z"/>
<path d="M826 3374 c-6 -16 9 -44 25 -44 16 0 38 31 33 45 -8 20 -50 19 -58
-1z"/>
<path d="M3616 3374 c-4 -10 -2 -22 3 -27 15 -15 46 -3 46 18 0 26 -40 33 -49
9z"/>
<path d="M637 2665 c-45 -16 -66 -33 -103 -86 l-27 -39 -3 -294 c-3 -284 -3
-295 16 -301 10 -3 29 -18 42 -33 13 -15 36 -37 52 -50 l29 -22 581 0 c570 0
581 0 594 -20 12 -20 10 -20 -573 -20 -470 0 -592 3 -618 14 -34 14 -84 58
-104 91 -12 20 -12 20 -12 -1 -2 -50 71 -126 143 -148 15 -5 8 -14 -38 -48
-73 -54 -116 -134 -116 -218 0 -60 25 -110 56 -110 8 0 38 19 67 43 28 23 66
52 83 64 l32 23 51 -51 51 -51 -25 -30 c-15 -17 -49 -51 -76 -76 -73 -66 -78
-78 -40 -116 30 -29 36 -31 104 -30 84 0 133 21 203 86 38 35 47 39 58 27 7
-8 41 -47 77 -88 171 -197 437 -369 679 -436 90 -25 98 -30 152 -85 86 -89
203 -138 301 -126 78 9 186 65 250 130 45 46 63 58 103 65 105 20 303 107 431
188 92 58 215 167 305 269 45 52 84 94 85 94 2 0 17 -15 33 -33 16 -18 53 -46
82 -62 95 -53 244 -36 256 30 3 11 -24 43 -77 93 -45 41 -81 82 -81 90 0 9 23
37 51 63 l51 47 82 -64 c48 -38 89 -63 100 -62 34 5 61 54 60 107 -3 87 -57
179 -137 234 -39 26 -40 28 -18 34 53 14 107 50 123 84 16 30 18 70 18 375 l0
342 -47 50 c-33 34 -61 54 -88 61 -27 7 -536 11 -1610 10 -1295 0 -1577 -2
-1608 -14z m2697 -65 c43 0 53 -4 87 -38 l38 -39 0 -269 c0 -298 -1 -303 -64
-330 -44 -18 -166 -18 -209 0 -56 23 -66 48 -66 161 0 99 -1 102 -30 130 -36
35 -38 45 -6 45 13 0 27 7 30 16 3 9 6 69 6 135 0 116 1 120 28 150 28 31 81
51 117 43 11 -2 42 -4 69 -4z m464 -18 c47 -27 56 -57 60 -192 l4 -126 -37
-33 -37 -32 21 -52 c11 -29 30 -86 42 -127 11 -41 23 -82 25 -90 4 -12 -6 -15
-56 -15 l-60 0 -15 55 c-27 98 -69 195 -85 195 -12 0 -15 -22 -18 -127 l-3
-128 -57 0 -57 0 3 145 c4 136 3 146 -18 172 l-22 28 21 3 c20 3 21 9 21 156
0 124 -3 156 -15 166 -8 7 -15 15 -15 19 0 12 274 -4 298 -17z m-2876 -11 c32
-28 33 -32 36 -120 l4 -91 -56 0 -55 0 -3 68 -3 67 -50 0 -50 0 -3 -231 -2
-232 22 -6 c66 -17 93 6 86 75 -3 32 -1 38 12 33 8 -4 34 -11 58 -17 l42 -10
0 -63 c0 -56 -3 -66 -29 -92 -64 -63 -239 -56 -286 12 -11 15 -15 50 -15 130
0 105 -1 111 -26 137 -25 26 -25 27 -6 33 27 9 32 33 32 161 1 156 18 174 167
175 88 0 94 -1 125 -29z m409 0 l29 -29 0 -294 c0 -161 3 -303 6 -315 6 -22 4
-23 -55 -23 l-61 0 0 71 0 70 -52 -3 -53 -3 0 -65 0 -65 -55 0 c-38 0 -55 4
-54 13 1 6 2 67 3 133 l1 121 25 -16 c13 -9 29 -16 35 -16 20 0 -1 20 -43 42
-23 11 -52 29 -65 38 l-22 18 35 21 35 20 0 117 0 116 39 39 39 39 92 0 c88 0
93 -1 121 -29z m389 12 c47 -32 49 -42 50 -183 l0 -134 -29 -31 -29 -30 29
-85 c16 -47 29 -95 29 -106 0 -12 7 -40 15 -63 l14 -41 -68 0 -68 0 -7 31 c-3
17 -6 47 -6 65 0 38 -58 164 -76 164 -17 0 -26 -87 -18 -179 l7 -81 -64 0 -64
0 3 149 3 148 -30 26 c-38 32 -38 35 -3 39 l27 3 3 144 c2 89 -1 148 -8 155
-22 22 -5 26 128 26 113 0 142 -3 162 -17z m264 -50 c38 -158 80 -292 88 -280
13 20 59 165 82 255 l21 86 64 3 64 4 -6 -113 c-4 -62 -7 -146 -7 -185 l0 -73
-40 0 -40 0 0 -155 c0 -89 -4 -155 -9 -155 -9 0 -6 262 3 378 2 23 1 42 -3 42
-4 0 -28 -64 -54 -142 -26 -79 -44 -125 -41 -103 4 22 11 48 15 57 5 9 9 29 9
44 0 23 -3 25 -22 19 -27 -8 -35 -8 -70 1 -26 6 -28 4 -29 -27 -1 -32 -2 -31
-16 16 -40 138 -42 134 -43 -70 0 -115 -4 -196 -11 -205 -7 -11 -9 30 -7 140
l3 155 -25 3 c-56 8 -60 21 -59 196 1 89 3 153 6 144 2 -10 9 -18 14 -18 5 0
7 11 3 25 -6 24 -4 25 44 25 l50 0 16 -67z m646 50 c46 -31 49 -43 50 -155 l0
-108 -39 0 c-22 0 -43 5 -46 11 -4 6 -7 45 -7 87 -1 45 -5 80 -12 84 -18 12
-81 9 -94 -4 -8 -8 -12 -48 -13 -107 0 -53 -3 -90 -6 -83 -2 6 -20 12 -38 12
-18 0 -35 -6 -38 -12 -2 -7 -7 31 -11 84 -13 169 15 208 148 208 60 0 88 -4
106 -17z m435 -5 c-4 -13 -7 -40 -6 -61 1 -35 0 -37 -18 -28 -11 6 -34 11 -51
11 l-31 0 3 -295 3 -295 -62 0 -63 0 -1 163 c0 89 0 222 1 295 l1 132 -36 0
c-20 0 -45 -4 -55 -10 -17 -9 -17 -7 -7 25 8 27 7 39 -7 59 l-16 26 176 0 176
0 -7 -22z m-586 -450 l1 -108 50 0 50 0 1 118 c1 99 3 110 11 72 5 -25 8 -82
6 -127 -2 -44 0 -79 5 -76 4 2 7 22 7 44 0 21 4 39 9 39 5 0 13 9 16 20 3 11
11 20 17 20 5 0 7 -8 4 -17 -4 -10 -3 -14 1 -10 4 5 13 32 19 60 11 50 12 49
13 -60 1 -111 1 -113 -28 -145 l-29 -33 -102 0 -102 0 -29 33 c-29 32 -29 33
-29 160 0 86 3 122 10 112 5 -8 10 -49 10 -90 l0 -75 35 0 35 0 1 75 c1 41 1
89 0 105 -1 26 1 27 8 10 5 -11 10 -68 10 -127z m201 117 c0 -11 -11 -15 -40
-15 -38 0 -49 8 -33 23 3 4 21 7 40 7 23 0 33 -5 33 -15z m-821 -192 c1 -83
-3 -133 -9 -133 -6 0 -10 57 -9 153 0 94 4 144 9 132 5 -11 9 -80 9 -152z
m412 -131 c-18 -2 -35 -2 -36 0 -2 2 -7 40 -10 84 -7 77 -6 83 17 104 12 13
17 20 11 16 -7 -4 -13 -5 -13 -2 0 2 -3 12 -6 21 -5 13 -1 15 20 11 20 -4 26
-1 26 14 0 10 3 27 8 37 4 10 9 -49 12 -132 l5 -150 -34 -3z m-232 215 c23 6
35 -31 15 -48 -8 -6 -14 -19 -15 -28 -1 -22 -27 49 -27 74 0 11 2 15 4 9 3 -7
13 -10 23 -7z m-122 -213 c-3 -3 -12 -4 -19 -1 -8 3 -5 6 6 6 11 1 17 -2 13
-5z m2044 -42 c-14 -27 -53 -60 -84 -71 -19 -7 -223 -11 -613 -11 -582 0 -584
0 -572 20 13 20 24 20 589 20 l577 0 48 33 c51 35 71 38 55 9z m-1831 -57 l0
-34 -67 -3 c-60 -3 -68 -5 -68 -23 0 -17 8 -20 53 -23 48 -3 52 -5 52 -28 0
-23 -3 -24 -55 -24 l-55 0 0 -50 0 -50 -35 0 -35 0 0 130 0 129 103 4 c56 1
103 4 105 5 1 1 2 -14 2 -33z m290 28 c0 -5 11 -26 24 -48 l24 -39 28 46 c25
42 30 46 66 44 21 0 38 -2 38 -3 0 -1 -21 -31 -46 -67 l-45 -66 19 -27 c10
-16 29 -45 41 -65 l23 -38 -36 0 c-31 0 -39 5 -62 42 l-27 42 -23 -30 c-13
-16 -24 -35 -24 -41 0 -8 -15 -13 -41 -13 l-41 0 17 28 c10 15 28 41 41 59 13
17 24 38 24 46 0 7 -18 39 -39 70 l-40 56 32 4 c18 2 35 5 40 5 4 1 7 -1 7 -5z
m-160 -133 l0 -130 -36 0 -37 0 7 46 c3 26 6 84 6 130 l0 84 30 0 30 0 0 -130z
m-1245 0 l-29 -30 24 -18 c46 -33 56 -32 102 3 47 36 105 64 92 43 -5 -8 5 -9
36 -4 l43 7 -88 -90 c-48 -49 -101 -110 -118 -136 l-31 -48 -17 68 c-14 54
-26 76 -61 112 -53 55 -82 71 -150 81 -52 9 -52 9 -18 15 19 3 58 10 85 15 28
5 74 10 104 11 l55 1 -29 -30z m2597 13 c56 -9 98 -18 92 -19 -96 -25 -130
-39 -164 -70 -42 -38 -90 -124 -90 -161 0 -31 -16 -29 -24 3 -4 14 -50 71
-103 125 -56 58 -93 103 -87 108 5 5 20 11 34 14 20 5 39 -4 90 -43 35 -28 71
-50 80 -50 9 0 29 13 44 29 22 23 25 31 14 37 -7 5 -19 17 -27 27 -12 15 -11
17 13 17 15 0 73 -8 128 -17z m-2502 -11 c0 -10 -41 -35 -47 -28 -9 8 17 36
33 36 8 0 14 -3 14 -8z m342 -17 c14 -30 -3 -55 -38 -55 -25 0 -39 28 -29 60
9 30 52 26 67 -5z m118 5 c20 -38 -8 -78 -45 -64 -21 8 -30 51 -15 69 18 21
47 19 60 -5z m130 0 c13 -25 5 -56 -17 -64 -17 -7 -63 18 -63 35 0 46 60 67
80 29z m1162 3 c23 -21 23 -36 -2 -58 -23 -21 -46 -14 -62 19 -20 46 25 74 64
39z m106 -50 l-3 -68 143 -3 142 -3 0 -34 c0 -24 6 -37 20 -45 29 -16 45 -60
28 -77 -19 -19 -2060 -22 -2083 -3 -22 19 -18 58 10 85 l24 25 292 0 292 0 32
-37 33 -38 263 -1 c145 0 445 -2 667 -4 263 -2 407 1 413 7 7 7 -83 10 -278 9
l-288 -1 -3 57 -3 57 133 3 133 3 0 45 c0 25 -4 48 -8 51 -14 10 5 39 25 39
18 0 19 -6 16 -67z m144 42 c10 -22 9 -29 -8 -46 -25 -24 -52 -16 -60 17 -13
50 47 75 68 29z m322 10 c10 -7 16 -18 15 -24 -2 -6 -17 0 -34 14 -32 26 -15
36 19 10z m-1634 -31 c0 -9 -5 -14 -12 -12 -18 6 -21 28 -4 28 9 0 16 -7 16
-16z m928 4 c-3 -7 -11 -13 -18 -13 -7 0 -15 6 -17 13 -3 7 4 12 17 12 13 0
20 -5 18 -12z m1137 -53 c25 -24 49 -61 58 -90 18 -50 22 -85 11 -85 -9 0
-139 97 -154 115 -10 13 -21 8 -72 -32 -85 -67 -108 -97 -108 -142 0 -32 8
-45 70 -106 38 -37 66 -73 63 -78 -10 -16 -92 1 -145 30 -33 18 -58 41 -75 71
-23 38 -25 51 -21 115 10 145 90 229 238 246 74 9 87 5 135 -44z m-3017 30
c49 -21 110 -80 133 -130 28 -61 26 -181 -3 -226 -33 -49 -121 -91 -184 -87
l-49 3 73 71 c57 56 72 76 72 100 0 55 -12 73 -85 132 l-72 60 -81 -64 c-45
-35 -84 -64 -87 -64 -3 0 -5 15 -5 33 1 48 32 107 78 150 40 35 46 37 107 37
37 0 82 -7 103 -15z m409 -427 c143 -158 341 -291 536 -359 62 -22 98 -51 83
-67 -11 -10 -147 39 -241 87 -187 96 -326 206 -459 361 -89 105 -90 107 -79
136 6 15 14 9 52 -36 25 -29 74 -84 108 -122z m2147 146 c9 -23 -69 -121 -194
-244 -127 -125 -258 -211 -430 -280 -154 -63 -160 -64 -160 -34 0 13 2 24 4
24 2 0 43 14 92 31 99 35 236 108 332 176 72 52 215 191 287 281 28 34 53 62
56 62 4 0 10 -7 13 -16z m-2095 -64 l22 -31 197 3 c108 2 206 7 217 12 17 8
17 6 -4 -17 l-24 -27 -198 0 -197 0 -26 31 c-25 30 -34 59 -18 59 5 0 18 -14
31 -30z m1410 -6 c49 -25 50 -25 265 -22 188 3 216 1 214 -12 -3 -13 -37 -15
-225 -18 l-222 -2 -45 32 c-25 17 -46 35 -46 40 0 12 6 10 59 -18z m-455 -60
c9 -3 16 -16 16 -29 0 -17 9 -26 32 -34 27 -10 33 -8 45 9 14 20 15 20 43 3
24 -14 29 -23 27 -48 -2 -27 1 -30 25 -30 15 0 35 -8 44 -17 16 -16 16 -19 2
-35 -24 -28 -1 -87 36 -91 26 -3 27 -6 24 -50 -2 -28 -8 -47 -15 -48 -7 -1
-19 -2 -26 -3 -7 0 -18 -20 -24 -43 -9 -34 -9 -46 2 -57 21 -21 -12 -72 -45
-68 -21 2 -25 -2 -23 -24 1 -19 -6 -30 -27 -42 -28 -17 -29 -17 -35 4 -4 13
-12 18 -22 15 -8 -3 -26 -9 -39 -12 -18 -5 -24 -13 -24 -35 0 -27 -3 -29 -40
-29 -38 0 -40 2 -40 29 0 30 -1 30 -62 47 -10 3 -19 -3 -23 -16 -6 -19 -8 -19
-36 -5 -20 11 -29 23 -29 41 0 16 -5 24 -13 22 -8 -2 -26 11 -40 28 -24 28
-25 32 -10 47 14 14 15 22 4 57 -9 32 -17 40 -35 40 -27 0 -36 17 -36 65 0 29
4 34 27 37 21 2 29 11 41 47 13 40 13 45 -2 53 -16 9 -16 11 0 29 9 10 25 19
36 19 18 0 22 9 19 41 -1 8 10 21 24 29 21 11 27 11 43 -3 26 -24 82 -5 82 27
0 13 3 26 7 29 8 9 46 9 67 1z m-356 -49 c17 -19 32 -45 32 -57 -1 -35 -44
-112 -71 -125 -54 -28 -114 -8 -141 47 -66 130 82 241 180 135z m803 18 c16
-10 29 -21 29 -25 0 -4 90 -8 201 -8 156 0 200 -3 197 -12 -4 -10 -53 -14
-191 -16 l-187 -2 0 -31 c0 -42 -25 -86 -60 -104 -60 -31 -95 -12 -130 72 -27
64 -21 96 23 123 39 24 80 25 118 3z m-1034 -46 c-3 -9 -45 -12 -148 -12 -120
0 -144 2 -147 15 -2 13 19 15 148 12 112 -2 150 -6 147 -15z m3 -92 c0 -13
-16 -15 -107 -13 -74 2 -108 7 -111 16 -3 9 23 12 107 12 93 0 111 -2 111 -15z
m1350 11 c0 -30 -16 -36 -91 -36 l-78 0 -51 -61 c-27 -33 -50 -64 -50 -70 0
-10 -33 -13 -43 -3 -13 13 108 154 143 167 18 6 170 9 170 3z"/>
<path d="M3237 2493 c-9 -8 -9 -400 -1 -442 6 -31 8 -32 53 -29 l46 3 3 238 2
237 -48 0 c-27 0 -52 -3 -55 -7z"/>
<path d="M3640 2386 l0 -113 40 7 c65 12 70 21 70 120 0 98 -2 100 -71 100
l-39 0 0 -114z"/>
<path d="M1150 2346 l0 -155 30 -16 c16 -8 38 -15 50 -15 20 0 20 4 18 168
l-3 167 -47 3 -48 3 0 -155z"/>
<path d="M1550 2391 c0 -125 2 -127 76 -96 l35 14 -3 93 -3 93 -52 3 -53 3 0
-110z"/>
<path d="M2468 1998 c5 -5 16 -8 23 -6 8 3 3 7 -10 11 -17 4 -21 3 -13 -5z"/>
<path d="M2456 1939 c3 -5 12 -9 21 -9 19 0 9 13 -12 16 -8 1 -13 -2 -9 -7z"/>
<path d="M2272 2100 c0 -14 2 -19 5 -12 2 6 2 18 0 25 -3 6 -5 1 -5 -13z"/>
<path d="M2162 1093 c-18 -9 -45 -32 -60 -51 -22 -29 -27 -47 -30 -106 -4 -91
21 -140 88 -173 169 -86 331 109 224 270 -45 68 -149 96 -222 60z m83 -103
c22 -11 44 -20 50 -20 5 0 11 -17 13 -38 1 -20 7 -38 12 -40 6 -2 10 -8 10
-13 0 -6 -5 -7 -10 -4 -14 8 -42 -14 -34 -27 3 -5 13 -4 22 3 10 6 4 0 -11
-15 -28 -26 -51 -32 -81 -20 -23 9 -9 24 22 24 21 0 24 2 12 10 -12 8 -11 10
8 10 30 0 49 39 33 69 -13 24 -68 30 -89 9 -19 -19 -14 -55 10 -72 12 -9 18
-16 12 -16 -6 0 -19 7 -30 15 -26 20 -38 19 -29 -2 4 -13 3 -15 -5 -7 -16 16
-26 89 -12 80 8 -5 10 -1 5 10 -4 12 3 24 23 41 16 12 29 23 29 23 1 0 18 -9
40 -20z"/>
<path d="M1787 1172 c-34 -38 -10 -102 39 -102 25 0 38 10 54 39 26 50 -55
105 -93 63z"/>
<path d="M2610 1170 c-24 -24 -25 -48 -4 -78 31 -45 104 -19 104 37 0 55 -61
80 -100 41z"/>
<path d="M403 2383 c-15 -5 -17 -39 -4 -48 5 -3 17 2 26 11 12 12 13 19 4 30
-6 8 -12 14 -13 13 0 0 -7 -3 -13 -6z"/>
<path d="M4064 2375 c-4 -9 -2 -21 4 -27 15 -15 44 -1 40 19 -4 23 -36 29 -44
8z"/>
<path d="M386 2263 c-4 -9 0 -23 9 -32 15 -15 18 -14 30 3 11 14 12 23 4 33
-16 18 -36 16 -43 -4z"/>
<path d="M4070 2264 c-11 -12 -10 -18 3 -32 16 -15 18 -15 33 0 19 18 12 48
-9 48 -8 0 -20 -7 -27 -16z"/>
<path d="M4154 2265 c-8 -20 3 -48 18 -43 6 2 16 12 22 21 8 13 7 20 -4 27
-21 14 -30 12 -36 -5z"/>
<path d="M306 2262 c-3 -5 1 -18 9 -28 13 -16 16 -17 25 -4 5 8 8 20 7 25 -5
13 -34 18 -41 7z"/>
<path d="M285 2150 c-10 -16 4 -30 30 -30 22 0 40 22 28 34 -10 10 -51 7 -58
-4z"/>
<path d="M390 2141 c0 -27 19 -36 37 -18 18 18 9 37 -18 37 -12 0 -19 -7 -19
-19z"/>
<path d="M4064 2149 c-3 -6 0 -17 8 -25 12 -12 17 -12 32 -1 11 8 16 19 12 25
-9 15 -43 15 -52 1z"/>
<path d="M4160 2141 c0 -27 19 -36 37 -18 18 18 9 37 -18 37 -12 0 -19 -7 -19
-19z"/>
<path d="M1042 1158 c-25 -25 -7 -68 29 -68 9 0 22 7 29 15 10 12 9 20 -4 40
-18 27 -35 32 -54 13z"/>
<path d="M3400 1145 c-23 -28 9 -72 45 -59 36 14 24 74 -15 74 -10 0 -23 -7
-30 -15z"/>
<path d="M1162 1053 c-22 -8 -34 -41 -22 -63 20 -37 70 -18 70 27 0 23 -26 43
-48 36z"/>
<path d="M3297 1044 c-15 -15 -7 -63 12 -73 28 -15 54 8 49 44 -2 24 -9 31
-28 33 -14 2 -29 0 -33 -4z"/>
<path d="M1253 943 c-7 -18 49 -73 74 -73 31 0 26 34 -7 62 -39 32 -58 35 -67
11z"/>
<path d="M3180 934 c-33 -28 -39 -51 -15 -60 20 -8 86 42 79 60 -10 26 -33 26
-64 0z"/>
<path d="M1144 895 c-8 -21 3 -45 20 -45 16 0 31 34 21 50 -9 15 -35 12 -41
-5z"/>
<path d="M3312 894 c-13 -24 -3 -54 18 -54 16 0 30 18 30 40 0 5 -9 14 -19 20
-16 8 -22 6 -29 -6z"/>
<path d="M3067 854 c-17 -9 -27 -22 -25 -32 5 -24 31 -26 59 -3 21 18 22 21 9
35 -13 13 -18 13 -43 0z"/>
<path d="M1394 848 c-4 -6 4 -21 20 -35 31 -27 39 -28 55 -9 9 11 6 18 -15 35
-30 24 -49 27 -60 9z"/>
<path d="M2960 785 c-7 -8 -20 -15 -29 -15 -10 0 -26 -6 -37 -14 -18 -14 -18
-16 -2 -32 15 -15 19 -14 67 16 40 26 48 36 40 47 -15 17 -24 17 -39 -2z"/>
<path d="M1536 782 c-15 -14 -4 -44 20 -54 20 -10 27 -9 34 2 5 8 5 21 0 31
-10 17 -45 31 -54 21z"/>
<path d="M1650 715 c-11 -13 -11 -19 3 -32 21 -21 49 -9 45 19 -4 28 -30 35
-48 13z"/>
<path d="M2798 719 c-10 -5 -18 -19 -18 -29 0 -21 24 -26 48 -11 15 9 13 43
-3 47 -5 2 -18 -1 -27 -7z"/>
<path d="M1754 675 c-8 -19 3 -35 26 -35 22 0 33 23 17 39 -15 15 -37 14 -43
-4z"/>
<path d="M2684 675 c-10 -8 -29 -15 -41 -15 -16 0 -23 -6 -23 -20 0 -13 7 -20
20 -20 11 0 20 7 20 15 0 18 12 19 28 3 16 -16 47 13 39 36 -8 20 -18 20 -43
1z"/>
<path d="M1844 645 c-4 -9 -2 -21 4 -27 15 -15 44 -1 40 19 -4 23 -36 29 -44
8z"/>
</g>
</svg>
